<?xml version="1.0" standalone="no"?>
<svg width="567.429" height="394.06" viewBox="0 0 567.429 394.06" xmlns="http://www.w3.org/2000/svg" shape-rendering="crispEdges">
<title>
./8127_postAlig_qualityPlots/figs/fig_pbeta_C.svg
</title>
<desc>
Creator: ROOT Version 6.32.06
CreationDate: Mon Oct  5 02:42:13 2026</desc>
<defs>
</defs>
<rect x="0.5" y="0" width="566.929" height="393.56" fill="white"/>
<rect x="74.2008" y="39.356" width="436.535" height="303.041" fill="white"/>
<rect x="74.2008" y="39.356" width="436.535" height="303.041" fill="none" stroke="black"/>
<rect x="74.2008" y="39.356" width="436.535" height="303.041" fill="white"/>
<rect x="74.2008" y="39.356" width="436.535" height="303.041" fill="none" stroke="black"/>
<path d="M74.2008,342.387h 1.99226" fill="none" stroke="black"/>
<path d="M78.724,342.387h 1.99226" fill="none" stroke="black"/>
<g fill="black">
<circle cx="77.4585" cy="342.387" r="1.26547"/>
</g>
<path d="M87.2317,342.356h 1.99226" fill="none" stroke="black"/>
<path d="M91.7549,342.356h 1.99226" fill="none" stroke="black"/>
<g fill="black">
<circle cx="90.4894" cy="342.356" r="1.26547"/>
</g>
<path d="M93.7471,342.336h 1.99226" fill="none" stroke="black"/>
<path d="M98.2703,342.336h 1.99226" fill="none" stroke="black"/>
<g fill="black">
<circle cx="97.0049" cy="342.336" r="1.26547"/>
</g>
<path d="M100.263,342.367h 1.99226" fill="none" stroke="black"/>
<path d="M104.786,342.367h 1.99226" fill="none" stroke="black"/>
<g fill="black">
<circle cx="103.52" cy="342.367" r="1.26547"/>
</g>
<path d="M106.778,342.367h 1.99226" fill="none" stroke="black"/>
<path d="M111.301,342.367h 1.99226" fill="none" stroke="black"/>
<g fill="black">
<circle cx="110.036" cy="342.367" r="1.26547"/>
</g>
<path d="M113.294,342.367h 1.99226" fill="none" stroke="black"/>
<path d="M117.817,342.367h 1.99226" fill="none" stroke="black"/>
<g fill="black">
<circle cx="116.551" cy="342.367" r="1.26547"/>
</g>
<path d="M119.809,342.356h 1.99226" fill="none" stroke="black"/>
<path d="M124.332,342.356h 1.99226" fill="none" stroke="black"/>
<g fill="black">
<circle cx="123.067" cy="342.356" r="1.26547"/>
</g>
<path d="M126.324,342.356h 1.99226" fill="none" stroke="black"/>
<path d="M130.848,342.356h 1.99226" fill="none" stroke="black"/>
<g fill="black">
<circle cx="129.582" cy="342.356" r="1.26547"/>
</g>
<path d="M132.84,342.295h 1.99226" fill="none" stroke="black"/>
<path d="M137.363,342.295h 1.99226" fill="none" stroke="black"/>
<g fill="black">
<circle cx="136.098" cy="342.295" r="1.26547"/>
</g>
<path d="M139.355,342.285h 1.99226" fill="none" stroke="black"/>
<path d="M143.879,342.285h 1.99226" fill="none" stroke="black"/>
<g fill="black">
<circle cx="142.613" cy="342.285" r="1.26547"/>
</g>
<path d="M145.871,342.285h 1.99226" fill="none" stroke="black"/>
<path d="M150.394,342.285h 1.99226" fill="none" stroke="black"/>
<g fill="black">
<circle cx="149.129" cy="342.285" r="1.26547"/>
</g>
<path d="M152.386,342.275h 1.99226" fill="none" stroke="black"/>
<path d="M156.909,342.275h 1.99226" fill="none" stroke="black"/>
<g fill="black">
<circle cx="155.644" cy="342.275" r="1.26547"/>
</g>
<path d="M158.902,342.275h 1.99226" fill="none" stroke="black"/>
<path d="M163.425,342.275h 1.99226" fill="none" stroke="black"/>
<g fill="black">
<circle cx="162.159" cy="342.275" r="1.26547"/>
</g>
<path d="M165.417,342.203h 1.99226" fill="none" stroke="black"/>
<path d="M169.94,342.203h 1.99226" fill="none" stroke="black"/>
<g fill="black">
<circle cx="168.675" cy="342.203" r="1.26547"/>
</g>
<path d="M171.933,342.244h 1.99226" fill="none" stroke="black"/>
<path d="M176.456,342.244h 1.99226" fill="none" stroke="black"/>
<g fill="black">
<circle cx="175.19" cy="342.244" r="1.26547"/>
</g>
<path d="M178.448,342.162h 1.99226" fill="none" stroke="black"/>
<path d="M182.971,342.162h 1.99226" fill="none" stroke="black"/>
<g fill="black">
<circle cx="181.706" cy="342.162" r="1.26547"/>
</g>
<path d="M184.964,341.866h 1.99226" fill="none" stroke="black"/>
<path d="M189.487,341.866h 1.99226" fill="none" stroke="black"/>
<g fill="black">
<circle cx="188.221" cy="341.866" r="1.26547"/>
</g>
<path d="M191.479,341.682h 1.99226" fill="none" stroke="black"/>
<path d="M196.002,341.682h 1.99226" fill="none" stroke="black"/>
<g fill="black">
<circle cx="194.737" cy="341.682" r="1.26547"/>
</g>
<path d="M197.994,341.12h 1.99226" fill="none" stroke="black"/>
<path d="M202.518,341.12h 1.99226" fill="none" stroke="black"/>
<g fill="black">
<circle cx="201.252" cy="341.12" r="1.26547"/>
</g>
<path d="M204.51,340.282h 1.99226" fill="none" stroke="black"/>
<path d="M209.033,340.282h 1.99226" fill="none" stroke="black"/>
<g fill="black">
<circle cx="207.768" cy="340.282" r="1.26547"/>
</g>
<path d="M211.025,339.444h 1.99226" fill="none" stroke="black"/>
<path d="M215.549,339.444h 1.99226" fill="none" stroke="black"/>
<g fill="black">
<circle cx="214.283" cy="339.444" r="1.26547"/>
</g>
<path d="M217.541,338.279h 1.99226" fill="none" stroke="black"/>
<path d="M222.064,338.279h 1.99226" fill="none" stroke="black"/>
<g fill="black">
<circle cx="220.799" cy="338.279" r="1.26547"/>
</g>
<path d="M224.056,336.337h 1.99226" fill="none" stroke="black"/>
<path d="M228.579,336.337h 1.99226" fill="none" stroke="black"/>
<g fill="black">
<circle cx="227.314" cy="336.337" r="1.26547"/>
</g>
<path d="M230.572,334.221h 1.99226" fill="none" stroke="black"/>
<path d="M235.095,334.221h 1.99226" fill="none" stroke="black"/>
<g fill="black">
<circle cx="233.829" cy="334.221" r="1.26547"/>
</g>
<path d="M237.087,330.123h 1.99226" fill="none" stroke="black"/>
<path d="M241.61,330.123h 1.99226" fill="none" stroke="black"/>
<g fill="black">
<circle cx="240.345" cy="330.123" r="1.26547"/>
</g>
<path d="M243.603,320.721h 1.99226" fill="none" stroke="black"/>
<path d="M248.126,320.721h 1.99226" fill="none" stroke="black"/>
<g fill="black">
<circle cx="246.86" cy="320.721" r="1.26547"/>
</g>
<path d="M250.118,302.345h 1.99226" fill="none" stroke="black"/>
<path d="M254.641,302.345h 1.99226" fill="none" stroke="black"/>
<g fill="black">
<circle cx="253.376" cy="302.345" r="1.26547"/>
</g>
<path d="M256.634,269.038h 1.99226" fill="none" stroke="black"/>
<path d="M261.157,269.038h 1.99226" fill="none" stroke="black"/>
<g fill="black">
<circle cx="259.891" cy="269.038" r="1.26547"/>
</g>
<path d="M263.149,218.867h 1.99226" fill="none" stroke="black"/>
<path d="M267.672,218.867h 1.99226" fill="none" stroke="black"/>
<g fill="black">
<circle cx="266.407" cy="218.867" r="1.26547"/>
</g>
<path d="M272.922,157.21v -0.115381" fill="none" stroke="black"/>
<path d="M272.922,154.564v -0.115381" fill="none" stroke="black"/>
<path d="M269.664,155.83h 1.99226" fill="none" stroke="black"/>
<path d="M274.188,155.83h 1.99226" fill="none" stroke="black"/>
<g fill="black">
<circle cx="272.922" cy="155.83" r="1.26547"/>
</g>
<path d="M279.438,95.0819v -0.32949" fill="none" stroke="black"/>
<path d="M279.438,92.2215v -0.32949" fill="none" stroke="black"/>
<path d="M276.18,93.487h 1.99226" fill="none" stroke="black"/>
<path d="M280.703,93.487h 1.99226" fill="none" stroke="black"/>
<g fill="black">
<circle cx="279.438" cy="93.487" r="1.26547"/>
</g>
<path d="M285.953,59.4122v -0.440279" fill="none" stroke="black"/>
<path d="M285.953,56.441v -0.440279" fill="none" stroke="black"/>
<path d="M282.695,57.7064h 1.99226" fill="none" stroke="black"/>
<path d="M287.219,57.7064h 1.99226" fill="none" stroke="black"/>
<g fill="black">
<circle cx="285.953" cy="57.7064" r="1.26547"/>
</g>
<path d="M292.469,57.2113v -0.446879" fill="none" stroke="black"/>
<path d="M292.469,54.2334v -0.446879" fill="none" stroke="black"/>
<path d="M289.211,55.4989h 1.99226" fill="none" stroke="black"/>
<path d="M293.734,55.4989h 1.99226" fill="none" stroke="black"/>
<g fill="black">
<circle cx="292.469" cy="55.4989" r="1.26547"/>
</g>
<path d="M298.984,94.6337v -0.33093" fill="none" stroke="black"/>
<path d="M298.984,91.7718v -0.33093" fill="none" stroke="black"/>
<path d="M295.726,93.0373h 1.99226" fill="none" stroke="black"/>
<path d="M300.249,93.0373h 1.99226" fill="none" stroke="black"/>
<g fill="black">
<circle cx="298.984" cy="93.0373" r="1.26547"/>
</g>
<path d="M305.499,152.272v -0.133604" fill="none" stroke="black"/>
<path d="M305.499,149.607v -0.133604" fill="none" stroke="black"/>
<path d="M302.242,150.873h 1.99226" fill="none" stroke="black"/>
<path d="M306.765,150.873h 1.99226" fill="none" stroke="black"/>
<g fill="black">
<circle cx="305.499" cy="150.873" r="1.26547"/>
</g>
<path d="M308.757,211.202h 1.99226" fill="none" stroke="black"/>
<path d="M313.28,211.202h 1.99226" fill="none" stroke="black"/>
<g fill="black">
<circle cx="312.015" cy="211.202" r="1.26547"/>
</g>
<path d="M315.273,264.326h 1.99226" fill="none" stroke="black"/>
<path d="M319.796,264.326h 1.99226" fill="none" stroke="black"/>
<g fill="black">
<circle cx="318.53" cy="264.326" r="1.26547"/>
</g>
<path d="M321.788,300.873h 1.99226" fill="none" stroke="black"/>
<path d="M326.311,300.873h 1.99226" fill="none" stroke="black"/>
<g fill="black">
<circle cx="325.046" cy="300.873" r="1.26547"/>
</g>
<path d="M328.303,322.386h 1.99226" fill="none" stroke="black"/>
<path d="M332.827,322.386h 1.99226" fill="none" stroke="black"/>
<g fill="black">
<circle cx="331.561" cy="322.386" r="1.26547"/>
</g>
<path d="M334.819,334.283h 1.99226" fill="none" stroke="black"/>
<path d="M339.342,334.283h 1.99226" fill="none" stroke="black"/>
<g fill="black">
<circle cx="338.077" cy="334.283" r="1.26547"/>
</g>
<path d="M341.334,339.178h 1.99226" fill="none" stroke="black"/>
<path d="M345.858,339.178h 1.99226" fill="none" stroke="black"/>
<g fill="black">
<circle cx="344.592" cy="339.178" r="1.26547"/>
</g>
<path d="M347.85,341.365h 1.99226" fill="none" stroke="black"/>
<path d="M352.373,341.365h 1.99226" fill="none" stroke="black"/>
<g fill="black">
<circle cx="351.108" cy="341.365" r="1.26547"/>
</g>
<path d="M354.365,342.081h 1.99226" fill="none" stroke="black"/>
<path d="M358.889,342.081h 1.99226" fill="none" stroke="black"/>
<g fill="black">
<circle cx="357.623" cy="342.081" r="1.26547"/>
</g>
<path d="M360.881,342.213h 1.99226" fill="none" stroke="black"/>
<path d="M365.404,342.213h 1.99226" fill="none" stroke="black"/>
<g fill="black">
<circle cx="364.138" cy="342.213" r="1.26547"/>
</g>
<path d="M367.396,342.305h 1.99226" fill="none" stroke="black"/>
<path d="M371.919,342.305h 1.99226" fill="none" stroke="black"/>
<g fill="black">
<circle cx="370.654" cy="342.305" r="1.26547"/>
</g>
<path d="M373.912,342.387h 1.99226" fill="none" stroke="black"/>
<path d="M378.435,342.387h 1.99226" fill="none" stroke="black"/>
<g fill="black">
<circle cx="377.169" cy="342.387" r="1.26547"/>
</g>
<path d="M380.427,342.377h 1.99226" fill="none" stroke="black"/>
<path d="M384.95,342.377h 1.99226" fill="none" stroke="black"/>
<g fill="black">
<circle cx="383.685" cy="342.377" r="1.26547"/>
</g>
<path d="M406.489,342.387h 1.99226" fill="none" stroke="black"/>
<path d="M411.012,342.387h 1.99226" fill="none" stroke="black"/>
<g fill="black">
<circle cx="409.747" cy="342.387" r="1.26547"/>
</g>
<path d="M254.124,301.712l 0.715702, -3.31812l 0.715702, -3.51265l 0.715702, -3.71102l 0.715702, -3.91255l 0.715702, -4.11649l 0.715702, -4.322l 0.715702, -4.52818l 0.715702, -4.73405l 0.715702, -4.93856l 0.715702, -5.14062l 0.715702, -5.33904l
 0.715702, -5.53263l 0.715702, -5.7201l 0.715702, -5.90016l 0.715702, -6.07147l 0.715702, -6.23268l 0.715702, -6.38241l 0.715702, -6.51931l 0.715702, -6.642l 0.715702, -6.74915l 0.715702, -6.83946l 0.715702, -6.91167l 0.715702, -6.96458l 0.715702,
 -6.99707l 0.715702, -7.00809l 0.715702, -6.9967l 0.715702, -6.96205l 0.715702, -6.90342l 0.715702, -6.82022l 0.715702, -6.712l 0.715702, -6.57846l 0.715702, -6.41943l 0.715702, -6.23493l 0.715702, -6.02513l 0.715702, -5.79037l 0.715702, -5.53118l
 0.715702, -5.24823l 0.715702, -4.94237l 0.715702, -4.61463l 0.715702, -4.26618l 0.715702, -3.89836l 0.715702, -3.51265l 0.715702, -3.11067l 0.715702, -2.69416l 0.715702, -2.26497l 0.715702, -1.82507l 0.715702, -1.37649l 0.715702, -0.921337l
 0.715702, -0.461775" fill="none" stroke="#ff0000" stroke-width="2"/>
<path d="M289.194,53.5569l 0.715702, -1.25056e-12l 0.715702, 0.461775l 0.715702, 0.921337l 0.715702, 1.37649l 0.715702, 1.82507l 0.715702, 2.26497l 0.715702, 2.69416l 0.715702, 3.11067l 0.715702, 3.51265l 0.715702, 3.89836l 0.715702, 4.26618l
 0.715702, 4.61463l 0.715702, 4.94237l 0.715702, 5.24823l 0.715702, 5.53118l 0.715702, 5.79037l 0.715702, 6.02513l 0.715702, 6.23493l 0.715702, 6.41943l 0.715702, 6.57846l 0.715702, 6.712l 0.715702, 6.82022l 0.715702, 6.90342l 0.715702, 6.96205l
 0.715702, 6.9967l 0.715702, 7.00809l 0.715702, 6.99707l 0.715702, 6.96458l 0.715702, 6.91167l 0.715702, 6.83946l 0.715702, 6.74915l 0.715702, 6.642l 0.715702, 6.51931l 0.715702, 6.38241l 0.715702, 6.23268l 0.715702, 6.07147l 0.715702, 5.90016l
 0.715702, 5.7201l 0.715702, 5.53263l 0.715702, 5.33904l 0.715702, 5.14062l 0.715702, 4.93856l 0.715702, 4.73405l 0.715702, 4.52818l 0.715702, 4.322l 0.715702, 4.11649l 0.715702, 3.91255l 0.715702, 3.71102l 0.715702, 3.51265" fill="none"
 stroke="#ff0000" stroke-width="2"/>
<path d="M324.263,298.394l 0.715702, 3.31812" fill="none" stroke="#ff0000" stroke-width="2"/>
<path d="M74.2008,342.397h 436.535" fill="none" stroke="black"/>
<path d="M74.2008,333.306v 9.09124" fill="none" stroke="black"/>
<path d="M87.2317,337.852v 4.54562" fill="none" stroke="black"/>
<path d="M100.263,337.852v 4.54562" fill="none" stroke="black"/>
<path d="M113.294,337.852v 4.54562" fill="none" stroke="black"/>
<path d="M126.324,333.306v 9.09124" fill="none" stroke="black"/>
<path d="M139.355,337.852v 4.54562" fill="none" stroke="black"/>
<path d="M152.386,337.852v 4.54562" fill="none" stroke="black"/>
<path d="M165.417,337.852v 4.54562" fill="none" stroke="black"/>
<path d="M178.448,333.306v 9.09124" fill="none" stroke="black"/>
<path d="M191.479,337.852v 4.54562" fill="none" stroke="black"/>
<path d="M204.51,337.852v 4.54562" fill="none" stroke="black"/>
<path d="M217.541,337.852v 4.54562" fill="none" stroke="black"/>
<path d="M230.572,333.306v 9.09124" fill="none" stroke="black"/>
<path d="M243.603,337.852v 4.54562" fill="none" stroke="black"/>
<path d="M256.634,337.852v 4.54562" fill="none" stroke="black"/>
<path d="M269.664,337.852v 4.54562" fill="none" stroke="black"/>
<path d="M282.695,333.306v 9.09124" fill="none" stroke="black"/>
<path d="M295.726,337.852v 4.54562" fill="none" stroke="black"/>
<path d="M308.757,337.852v 4.54562" fill="none" stroke="black"/>
<path d="M321.788,337.852v 4.54562" fill="none" stroke="black"/>
<path d="M334.819,333.306v 9.09124" fill="none" stroke="black"/>
<path d="M347.85,337.852v 4.54562" fill="none" stroke="black"/>
<path d="M360.881,337.852v 4.54562" fill="none" stroke="black"/>
<path d="M373.912,337.852v 4.54562" fill="none" stroke="black"/>
<path d="M386.943,333.306v 9.09124" fill="none" stroke="black"/>
<path d="M399.974,337.852v 4.54562" fill="none" stroke="black"/>
<path d="M413.004,337.852v 4.54562" fill="none" stroke="black"/>
<path d="M426.035,337.852v 4.54562" fill="none" stroke="black"/>
<path d="M439.066,333.306v 9.09124" fill="none" stroke="black"/>
<path d="M452.097,337.852v 4.54562" fill="none" stroke="black"/>
<path d="M465.128,337.852v 4.54562" fill="none" stroke="black"/>
<path d="M478.159,337.852v 4.54562" fill="none" stroke="black"/>
<path d="M491.19,333.306v 9.09124" fill="none" stroke="black"/>
<path d="M491.19,333.306v 9.09124" fill="none" stroke="black"/>
<path d="M504.221,337.852v 4.54562" fill="none" stroke="black"/>
<text xml:space="preserve" x="65.0388" y="355.596" fill="black" font-size="13.1373" font-family="Helvetica">6.4
</text>
<text xml:space="preserve" x="117.556" y="355.596" fill="black" font-size="13.1373" font-family="Helvetica">6.6
</text>
<text xml:space="preserve" x="169.44" y="355.596" fill="black" font-size="13.1373" font-family="Helvetica">6.8
</text>
<text xml:space="preserve" x="227.019" y="355.596" fill="black" font-size="13.1373" font-family="Helvetica">7
</text>
<text xml:space="preserve" x="273.841" y="355.596" fill="black" font-size="13.1373" font-family="Helvetica">7.2
</text>
<text xml:space="preserve" x="325.725" y="355.596" fill="black" font-size="13.1373" font-family="Helvetica">7.4
</text>
<text xml:space="preserve" x="378.242" y="355.596" fill="black" font-size="13.1373" font-family="Helvetica">7.6
</text>
<text xml:space="preserve" x="430.126" y="355.596" fill="black" font-size="13.1373" font-family="Helvetica">7.8
</text>
<text xml:space="preserve" x="487.705" y="355.596" fill="black" font-size="13.1373" font-family="Helvetica">8
</text>
<text xml:space="preserve" x="465.559" y="364.454" fill="black" font-size="13.1373" font-family="Helvetica"> [GeV/c]
</text>
<text xml:space="preserve" x="460.497" y="372.047" fill="black" font-size="8.92484" font-family="Times">&#0946;
</text>
<text xml:space="preserve" x="453.537" y="364.454" fill="black" font-size="13.1373" font-family="Helvetica">p
</text>
<path d="M74.2008,342.397v -303.041" fill="none" stroke="black"/>
<path d="M87.2969,342.397h -13.0961" fill="none" stroke="black"/>
<path d="M80.7488,332.177h -6.54803" fill="none" stroke="black"/>
<path d="M80.7488,321.957h -6.54803" fill="none" stroke="black"/>
<path d="M80.7488,311.737h -6.54803" fill="none" stroke="black"/>
<path d="M80.7488,301.517h -6.54803" fill="none" stroke="black"/>
<path d="M87.2969,291.297h -13.0961" fill="none" stroke="black"/>
<path d="M80.7488,281.077h -6.54803" fill="none" stroke="black"/>
<path d="M80.7488,270.857h -6.54803" fill="none" stroke="black"/>
<path d="M80.7488,260.637h -6.54803" fill="none" stroke="black"/>
<path d="M80.7488,250.417h -6.54803" fill="none" stroke="black"/>
<path d="M87.2969,240.196h -13.0961" fill="none" stroke="black"/>
<path d="M80.7488,229.976h -6.54803" fill="none" stroke="black"/>
<path d="M80.7488,219.756h -6.54803" fill="none" stroke="black"/>
<path d="M80.7488,209.536h -6.54803" fill="none" stroke="black"/>
<path d="M80.7488,199.316h -6.54803" fill="none" stroke="black"/>
<path d="M87.2969,189.096h -13.0961" fill="none" stroke="black"/>
<path d="M80.7488,178.876h -6.54803" fill="none" stroke="black"/>
<path d="M80.7488,168.656h -6.54803" fill="none" stroke="black"/>
<path d="M80.7488,158.436h -6.54803" fill="none" stroke="black"/>
<path d="M80.7488,148.216h -6.54803" fill="none" stroke="black"/>
<path d="M87.2969,137.995h -13.0961" fill="none" stroke="black"/>
<path d="M80.7488,127.775h -6.54803" fill="none" stroke="black"/>
<path d="M80.7488,117.555h -6.54803" fill="none" stroke="black"/>
<path d="M80.7488,107.335h -6.54803" fill="none" stroke="black"/>
<path d="M80.7488,97.1151h -6.54803" fill="none" stroke="black"/>
<path d="M87.2969,86.895h -13.0961" fill="none" stroke="black"/>
<path d="M87.2969,86.895h -13.0961" fill="none" stroke="black"/>
<path d="M80.7488,76.6749h -6.54803" fill="none" stroke="black"/>
<path d="M80.7488,66.4548h -6.54803" fill="none" stroke="black"/>
<path d="M80.7488,56.2348h -6.54803" fill="none" stroke="black"/>
<path d="M80.7488,46.0147h -6.54803" fill="none" stroke="black"/>
<text xml:space="preserve" x="64.4061" y="347.371" fill="black" font-size="13.1373" font-family="Helvetica">0
</text>
<text xml:space="preserve" x="43.5259" y="296.119" fill="black" font-size="13.1373" font-family="Helvetica">5000
</text>
<text xml:space="preserve" x="36.5658" y="245.501" fill="black" font-size="13.1373" font-family="Helvetica">10000
</text>
<text xml:space="preserve" x="36.5658" y="194.249" fill="black" font-size="13.1373" font-family="Helvetica">15000
</text>
<text xml:space="preserve" x="36.5658" y="142.998" fill="black" font-size="13.1373" font-family="Helvetica">20000
</text>
<text xml:space="preserve" x="36.5658" y="91.7463" fill="black" font-size="13.1373" font-family="Helvetica">25000
</text>
<g transform="rotate(-90,24.5439,78.4589)">
<text xml:space="preserve" x="24.5439" y="78.4589" fill="black" font-size="13.1373" font-family="Helvetica">Entries
</text>
</g>
<path d="M254.124,301.712l 0.715702, -3.31812l 0.715702, -3.51265l 0.715702, -3.71102l 0.715702, -3.91255l 0.715702, -4.11649l 0.715702, -4.322l 0.715702, -4.52818l 0.715702, -4.73405l 0.715702, -4.93856l 0.715702, -5.14062l 0.715702, -5.33904l
 0.715702, -5.53263l 0.715702, -5.7201l 0.715702, -5.90016l 0.715702, -6.07147l 0.715702, -6.23268l 0.715702, -6.38241l 0.715702, -6.51931l 0.715702, -6.642l 0.715702, -6.74915l 0.715702, -6.83946l 0.715702, -6.91167l 0.715702, -6.96458l 0.715702,
 -6.99707l 0.715702, -7.00809l 0.715702, -6.9967l 0.715702, -6.96205l 0.715702, -6.90342l 0.715702, -6.82022l 0.715702, -6.712l 0.715702, -6.57846l 0.715702, -6.41943l 0.715702, -6.23493l 0.715702, -6.02513l 0.715702, -5.79037l 0.715702, -5.53118l
 0.715702, -5.24823l 0.715702, -4.94237l 0.715702, -4.61463l 0.715702, -4.26618l 0.715702, -3.89836l 0.715702, -3.51265l 0.715702, -3.11067l 0.715702, -2.69416l 0.715702, -2.26497l 0.715702, -1.82507l 0.715702, -1.37649l 0.715702, -0.921337l
 0.715702, -0.461775" fill="none" stroke="#ff0000" stroke-width="2"/>
<path d="M289.194,53.5569l 0.715702, -1.25056e-12l 0.715702, 0.461775l 0.715702, 0.921337l 0.715702, 1.37649l 0.715702, 1.82507l 0.715702, 2.26497l 0.715702, 2.69416l 0.715702, 3.11067l 0.715702, 3.51265l 0.715702, 3.89836l 0.715702, 4.26618l
 0.715702, 4.61463l 0.715702, 4.94237l 0.715702, 5.24823l 0.715702, 5.53118l 0.715702, 5.79037l 0.715702, 6.02513l 0.715702, 6.23493l 0.715702, 6.41943l 0.715702, 6.57846l 0.715702, 6.712l 0.715702, 6.82022l 0.715702, 6.90342l 0.715702, 6.96205l
 0.715702, 6.9967l 0.715702, 7.00809l 0.715702, 6.99707l 0.715702, 6.96458l 0.715702, 6.91167l 0.715702, 6.83946l 0.715702, 6.74915l 0.715702, 6.642l 0.715702, 6.51931l 0.715702, 6.38241l 0.715702, 6.23268l 0.715702, 6.07147l 0.715702, 5.90016l
 0.715702, 5.7201l 0.715702, 5.53263l 0.715702, 5.33904l 0.715702, 5.14062l 0.715702, 4.93856l 0.715702, 4.73405l 0.715702, 4.52818l 0.715702, 4.322l 0.715702, 4.11649l 0.715702, 3.91255l 0.715702, 3.71102l 0.715702, 3.51265" fill="none"
 stroke="#ff0000" stroke-width="2"/>
<path d="M324.263,298.394l 0.715702, 3.31812" fill="none" stroke="#ff0000" stroke-width="2"/>
<rect x="329.319" y="47.2272" width="170.079" height="102.326" fill="white"/>
<path d="M329.319,149.553h 170.079" fill="none" stroke="black"/>
<path d="M499.398,149.553v -102.326" fill="none" stroke="black"/>
<path d="M499.398,47.2272h -170.079" fill="none" stroke="black"/>
<path d="M329.319,47.2272v 102.326" fill="none" stroke="black"/>
<text xml:space="preserve" x="440.25" y="64.5388" fill="black" font-size="16.6746" font-family="Helvetica" font-weight="bold"> 0.0002
</text>
<text xml:space="preserve" x="430.759" y="64.5388" fill="black" font-size="16.6746" font-family="Times">&#0177;
</text>
<text xml:space="preserve" x="347.238" y="64.5388" fill="black" font-size="16.6746" font-family="Helvetica" font-weight="bold"> = 7.2263 
</text>
<text xml:space="preserve" x="337.747" y="64.5388" fill="black" font-size="16.6746" font-family="Times">&#0956;
</text>
<text xml:space="preserve" x="440.882" y="91.7463" fill="black" font-size="16.6746" font-family="Helvetica" font-weight="bold"> 0.0002
</text>
<text xml:space="preserve" x="431.391" y="91.7463" fill="black" font-size="16.6746" font-family="Times">&#0177;
</text>
<text xml:space="preserve" x="347.871" y="91.7463" fill="black" font-size="16.6746" font-family="Helvetica" font-weight="bold"> = 0.0687 
</text>
<text xml:space="preserve" x="337.747" y="91.7463" fill="black" font-size="16.6746" font-family="Times">&#0963;
</text>
<text xml:space="preserve" x="352.3" y="116.423" fill="black" font-size="16.6746" font-family="Helvetica" font-weight="bold">/ndf = 16/8
</text>
<text xml:space="preserve" x="346.605" y="111.361" fill="black" font-size="11.2831" font-family="Helvetica" font-weight="bold">2
</text>
<text xml:space="preserve" x="337.747" y="116.423" fill="black" font-size="16.6746" font-family="Times">&#0967;
</text>
<text xml:space="preserve" x="337.747" y="142.998" fill="black" font-size="16.6746" font-family="Helvetica" font-weight="bold">N = 198661
</text></svg>
